<svg viewBox="0 0 490 490" height="490" width="490" xmlns="http://www.w3.org/2000/svg" xml:space="preserve" style="fill-rule:evenodd;clip-rule:evenodd;stroke-linejoin:round;stroke-miterlimit:2"><path d="M5.2 21a2.123 2.123 0 0 1-1.562-.637A2.126 2.126 0 0 1 3 18.8V5.1c0-.483.225-.821.675-1.013.45-.191.842-.12 1.175.213L7.1 6.55 5.75 7.9l.7.7L7.8 7.25l2.6 2.6-1.35 1.35.7.7 1.35-1.35 2.6 2.6-1.35 1.35.7.7 1.35-1.35 2.6 2.6-1.35 1.35.7.7 1.35-1.35 2 2c.333.333.404.725.213 1.175-.192.45-.53.675-1.013.675H5.2Zm.8-3h8.3L6 9.7V18Z" style="fill:#fff;fill-rule:nonzero" transform="translate(-86.382 -114.673) scale(28.794)"/></svg>